<?xml version="1.0" standalone="no"?>
<!DOCTYPE svg PUBLIC "-//W3C//DTD SVG 20010904//EN"
 "http://www.w3.org/TR/2001/REC-SVG-20010904/DTD/svg10.dtd">
<svg version="1.0" xmlns="http://www.w3.org/2000/svg"
 width="256.000000pt" height="256.000000pt" viewBox="0 0 256.000000 256.000000"
 preserveAspectRatio="xMidYMid meet">
<metadata>
Created by potrace 1.11, written by Peter Selinger 2001-2013
</metadata>
<g transform="translate(0.000000,256.000000) scale(0.100000,-0.100000)"
fill="#000000" stroke="none">
<path d="M664 1635 l-43 -50 922 -3 922 -3 43 48 c23 26 42 49 42 52 0 4 -415
6 -921 6 l-921 0 -44 -50z"/>
<path d="M67 1492 c-19 -20 -27 -39 -27 -65 l0 -36 105 -3 104 -3 -42 -45
c-23 -25 -70 -78 -105 -118 -58 -68 -62 -76 -62 -123 l0 -49 186 0 185 0 34
38 35 37 0 -37 0 -38 190 0 190 0 35 38 34 37 1 -37 0 -38 44 0 c40 0 48 4 75
39 29 36 31 45 31 117 l0 79 54 -60 c61 -68 46 -71 129 23 l37 42 0 -120 0
-120 264 0 264 0 31 42 c30 40 31 46 31 144 l0 102 -107 0 c-162 0 -153 -1
-153 27 0 23 3 25 53 26 28 0 77 0 108 -1 55 -1 57 0 93 41 28 33 36 38 37 23
0 -10 1 -104 2 -209 l2 -190 42 -3 c37 -3 45 1 76 34 30 33 33 42 32 90 l-2
54 73 0 74 0 0 -90 0 -90 44 0 c39 0 48 4 75 37 l31 38 0 197 0 198 -404 0
-404 0 -36 -42 -36 -42 0 -103 0 -103 130 0 c124 0 130 -1 127 -20 -2 -11 -6
-22 -9 -26 -4 -3 -54 -6 -112 -7 l-105 0 -28 -38 c-15 -21 -30 -39 -33 -39 -3
0 -5 95 -5 210 l0 210 -80 -1 -80 0 -50 -60 -50 -60 -53 61 -54 60 -267 0
-267 0 -30 -37 -29 -37 -5 35 -5 34 -195 3 -196 2 -27 -28z m859 -309 c-4 -4
-185 -6 -273 -4 -18 1 -23 7 -23 26 0 25 0 25 94 25 88 0 96 2 114 24 10 14
19 38 18 53 l-1 28 -110 1 -110 1 -3 26 -3 27 112 0 112 0 36 42 36 42 3 -143
c1 -79 0 -146 -2 -148z m-450 0 c-6 -7 -185 -7 -192 -1 -3 4 39 57 93 120 l98
113 3 -114 c1 -62 1 -116 -2 -118z m1740 160 c-7 -8 -122 -7 -135 1 -6 4 -10
15 -9 24 2 13 18 18 73 22 67 5 70 4 73 -18 2 -13 1 -26 -2 -29z"/>
<path d="M54 936 c-24 -27 -44 -52 -44 -55 0 -4 415 -6 921 -6 l921 0 46 53
c37 43 41 52 26 53 -11 1 -426 2 -922 3 l-904 1 -44 -49z"/>
</g>
</svg>
